<svg xmlns="http://www.w3.org/2000/svg" viewBox="0 0 41 41" shape-rendering="crispEdges" role="img" aria-label="CEALI notebook QR code"><rect width="41" height="41" fill="#fff"/><path d="M4,4h1v1h-1zM5,4h1v1h-1zM6,4h1v1h-1zM7,4h1v1h-1zM8,4h1v1h-1zM9,4h1v1h-1zM10,4h1v1h-1zM12,4h1v1h-1zM14,4h1v1h-1zM16,4h1v1h-1zM18,4h1v1h-1zM20,4h1v1h-1zM22,4h1v1h-1zM30,4h1v1h-1zM31,4h1v1h-1zM32,4h1v1h-1zM33,4h1v1h-1zM34,4h1v1h-1zM35,4h1v1h-1zM36,4h1v1h-1zM4,5h1v1h-1zM10,5h1v1h-1zM12,5h1v1h-1zM16,5h1v1h-1zM20,5h1v1h-1zM22,5h1v1h-1zM30,5h1v1h-1zM36,5h1v1h-1zM4,6h1v1h-1zM6,6h1v1h-1zM7,6h1v1h-1zM8,6h1v1h-1zM10,6h1v1h-1zM12,6h1v1h-1zM14,6h1v1h-1zM18,6h1v1h-1zM21,6h1v1h-1zM22,6h1v1h-1zM25,6h1v1h-1zM26,6h1v1h-1zM30,6h1v1h-1zM32,6h1v1h-1zM33,6h1v1h-1zM34,6h1v1h-1zM36,6h1v1h-1zM4,7h1v1h-1zM6,7h1v1h-1zM7,7h1v1h-1zM8,7h1v1h-1zM10,7h1v1h-1zM16,7h1v1h-1zM20,7h1v1h-1zM21,7h1v1h-1zM22,7h1v1h-1zM23,7h1v1h-1zM25,7h1v1h-1zM26,7h1v1h-1zM28,7h1v1h-1zM30,7h1v1h-1zM32,7h1v1h-1zM33,7h1v1h-1zM34,7h1v1h-1zM36,7h1v1h-1zM4,8h1v1h-1zM6,8h1v1h-1zM7,8h1v1h-1zM8,8h1v1h-1zM10,8h1v1h-1zM12,8h1v1h-1zM13,8h1v1h-1zM15,8h1v1h-1zM16,8h1v1h-1zM17,8h1v1h-1zM19,8h1v1h-1zM20,8h1v1h-1zM21,8h1v1h-1zM22,8h1v1h-1zM23,8h1v1h-1zM25,8h1v1h-1zM30,8h1v1h-1zM32,8h1v1h-1zM33,8h1v1h-1zM34,8h1v1h-1zM36,8h1v1h-1zM4,9h1v1h-1zM10,9h1v1h-1zM12,9h1v1h-1zM13,9h1v1h-1zM14,9h1v1h-1zM15,9h1v1h-1zM17,9h1v1h-1zM18,9h1v1h-1zM19,9h1v1h-1zM25,9h1v1h-1zM26,9h1v1h-1zM30,9h1v1h-1zM36,9h1v1h-1zM4,10h1v1h-1zM5,10h1v1h-1zM6,10h1v1h-1zM7,10h1v1h-1zM8,10h1v1h-1zM9,10h1v1h-1zM10,10h1v1h-1zM12,10h1v1h-1zM14,10h1v1h-1zM16,10h1v1h-1zM18,10h1v1h-1zM20,10h1v1h-1zM22,10h1v1h-1zM24,10h1v1h-1zM26,10h1v1h-1zM28,10h1v1h-1zM30,10h1v1h-1zM31,10h1v1h-1zM32,10h1v1h-1zM33,10h1v1h-1zM34,10h1v1h-1zM35,10h1v1h-1zM36,10h1v1h-1zM12,11h1v1h-1zM14,11h1v1h-1zM18,11h1v1h-1zM6,12h1v1h-1zM10,12h1v1h-1zM11,12h1v1h-1zM12,12h1v1h-1zM14,12h1v1h-1zM16,12h1v1h-1zM18,12h1v1h-1zM20,12h1v1h-1zM23,12h1v1h-1zM24,12h1v1h-1zM29,12h1v1h-1zM30,12h1v1h-1zM31,12h1v1h-1zM32,12h1v1h-1zM34,12h1v1h-1zM35,12h1v1h-1zM36,12h1v1h-1zM4,13h1v1h-1zM6,13h1v1h-1zM11,13h1v1h-1zM12,13h1v1h-1zM13,13h1v1h-1zM15,13h1v1h-1zM17,13h1v1h-1zM19,13h1v1h-1zM22,13h1v1h-1zM23,13h1v1h-1zM24,13h1v1h-1zM27,13h1v1h-1zM28,13h1v1h-1zM33,13h1v1h-1zM36,13h1v1h-1zM4,14h1v1h-1zM7,14h1v1h-1zM8,14h1v1h-1zM10,14h1v1h-1zM12,14h1v1h-1zM13,14h1v1h-1zM14,14h1v1h-1zM15,14h1v1h-1zM17,14h1v1h-1zM18,14h1v1h-1zM19,14h1v1h-1zM22,14h1v1h-1zM23,14h1v1h-1zM24,14h1v1h-1zM25,14h1v1h-1zM27,14h1v1h-1zM28,14h1v1h-1zM30,14h1v1h-1zM32,14h1v1h-1zM33,14h1v1h-1zM35,14h1v1h-1zM36,14h1v1h-1zM4,15h1v1h-1zM5,15h1v1h-1zM8,15h1v1h-1zM11,15h1v1h-1zM13,15h1v1h-1zM15,15h1v1h-1zM16,15h1v1h-1zM17,15h1v1h-1zM19,15h1v1h-1zM20,15h1v1h-1zM21,15h1v1h-1zM23,15h1v1h-1zM24,15h1v1h-1zM25,15h1v1h-1zM29,15h1v1h-1zM30,15h1v1h-1zM33,15h1v1h-1zM35,15h1v1h-1zM4,16h1v1h-1zM5,16h1v1h-1zM6,16h1v1h-1zM8,16h1v1h-1zM10,16h1v1h-1zM11,16h1v1h-1zM13,16h1v1h-1zM14,16h1v1h-1zM15,16h1v1h-1zM17,16h1v1h-1zM18,16h1v1h-1zM19,16h1v1h-1zM23,16h1v1h-1zM24,16h1v1h-1zM28,16h1v1h-1zM29,16h1v1h-1zM33,16h1v1h-1zM36,16h1v1h-1zM4,17h1v1h-1zM5,17h1v1h-1zM6,17h1v1h-1zM9,17h1v1h-1zM11,17h1v1h-1zM12,17h1v1h-1zM13,17h1v1h-1zM18,17h1v1h-1zM22,17h1v1h-1zM24,17h1v1h-1zM26,17h1v1h-1zM27,17h1v1h-1zM28,17h1v1h-1zM29,17h1v1h-1zM33,17h1v1h-1zM34,17h1v1h-1zM36,17h1v1h-1zM4,18h1v1h-1zM5,18h1v1h-1zM8,18h1v1h-1zM9,18h1v1h-1zM10,18h1v1h-1zM13,18h1v1h-1zM16,18h1v1h-1zM20,18h1v1h-1zM23,18h1v1h-1zM24,18h1v1h-1zM25,18h1v1h-1zM26,18h1v1h-1zM27,18h1v1h-1zM28,18h1v1h-1zM29,18h1v1h-1zM31,18h1v1h-1zM32,18h1v1h-1zM35,18h1v1h-1zM36,18h1v1h-1zM4,19h1v1h-1zM5,19h1v1h-1zM6,19h1v1h-1zM8,19h1v1h-1zM13,19h1v1h-1zM14,19h1v1h-1zM18,19h1v1h-1zM23,19h1v1h-1zM24,19h1v1h-1zM27,19h1v1h-1zM28,19h1v1h-1zM29,19h1v1h-1zM30,19h1v1h-1zM32,19h1v1h-1zM33,19h1v1h-1zM35,19h1v1h-1zM6,20h1v1h-1zM7,20h1v1h-1zM8,20h1v1h-1zM9,20h1v1h-1zM10,20h1v1h-1zM11,20h1v1h-1zM13,20h1v1h-1zM14,20h1v1h-1zM16,20h1v1h-1zM18,20h1v1h-1zM20,20h1v1h-1zM23,20h1v1h-1zM28,20h1v1h-1zM29,20h1v1h-1zM35,20h1v1h-1zM36,20h1v1h-1zM4,21h1v1h-1zM5,21h1v1h-1zM6,21h1v1h-1zM7,21h1v1h-1zM8,21h1v1h-1zM9,21h1v1h-1zM15,21h1v1h-1zM17,21h1v1h-1zM19,21h1v1h-1zM21,21h1v1h-1zM23,21h1v1h-1zM24,21h1v1h-1zM26,21h1v1h-1zM28,21h1v1h-1zM31,21h1v1h-1zM34,21h1v1h-1zM36,21h1v1h-1zM4,22h1v1h-1zM5,22h1v1h-1zM7,22h1v1h-1zM8,22h1v1h-1zM9,22h1v1h-1zM10,22h1v1h-1zM13,22h1v1h-1zM14,22h1v1h-1zM15,22h1v1h-1zM17,22h1v1h-1zM18,22h1v1h-1zM19,22h1v1h-1zM21,22h1v1h-1zM22,22h1v1h-1zM24,22h1v1h-1zM27,22h1v1h-1zM28,22h1v1h-1zM30,22h1v1h-1zM31,22h1v1h-1zM32,22h1v1h-1zM33,22h1v1h-1zM35,22h1v1h-1zM36,22h1v1h-1zM4,23h1v1h-1zM5,23h1v1h-1zM7,23h1v1h-1zM8,23h1v1h-1zM9,23h1v1h-1zM11,23h1v1h-1zM12,23h1v1h-1zM15,23h1v1h-1zM16,23h1v1h-1zM17,23h1v1h-1zM19,23h1v1h-1zM20,23h1v1h-1zM24,23h1v1h-1zM27,23h1v1h-1zM29,23h1v1h-1zM30,23h1v1h-1zM31,23h1v1h-1zM32,23h1v1h-1zM33,23h1v1h-1zM35,23h1v1h-1zM7,24h1v1h-1zM10,24h1v1h-1zM13,24h1v1h-1zM14,24h1v1h-1zM15,24h1v1h-1zM17,24h1v1h-1zM18,24h1v1h-1zM19,24h1v1h-1zM21,24h1v1h-1zM27,24h1v1h-1zM28,24h1v1h-1zM29,24h1v1h-1zM35,24h1v1h-1zM36,24h1v1h-1zM5,25h1v1h-1zM7,25h1v1h-1zM8,25h1v1h-1zM12,25h1v1h-1zM18,25h1v1h-1zM21,25h1v1h-1zM23,25h1v1h-1zM24,25h1v1h-1zM26,25h1v1h-1zM28,25h1v1h-1zM29,25h1v1h-1zM30,25h1v1h-1zM34,25h1v1h-1zM36,25h1v1h-1zM4,26h1v1h-1zM7,26h1v1h-1zM8,26h1v1h-1zM10,26h1v1h-1zM11,26h1v1h-1zM12,26h1v1h-1zM16,26h1v1h-1zM20,26h1v1h-1zM22,26h1v1h-1zM23,26h1v1h-1zM24,26h1v1h-1zM25,26h1v1h-1zM27,26h1v1h-1zM28,26h1v1h-1zM32,26h1v1h-1zM33,26h1v1h-1zM35,26h1v1h-1zM36,26h1v1h-1zM5,27h1v1h-1zM6,27h1v1h-1zM7,27h1v1h-1zM8,27h1v1h-1zM9,27h1v1h-1zM13,27h1v1h-1zM14,27h1v1h-1zM18,27h1v1h-1zM24,27h1v1h-1zM29,27h1v1h-1zM32,27h1v1h-1zM35,27h1v1h-1zM4,28h1v1h-1zM6,28h1v1h-1zM7,28h1v1h-1zM8,28h1v1h-1zM9,28h1v1h-1zM10,28h1v1h-1zM11,28h1v1h-1zM16,28h1v1h-1zM18,28h1v1h-1zM20,28h1v1h-1zM21,28h1v1h-1zM23,28h1v1h-1zM25,28h1v1h-1zM27,28h1v1h-1zM28,28h1v1h-1zM29,28h1v1h-1zM30,28h1v1h-1zM31,28h1v1h-1zM32,28h1v1h-1zM12,29h1v1h-1zM14,29h1v1h-1zM15,29h1v1h-1zM17,29h1v1h-1zM19,29h1v1h-1zM21,29h1v1h-1zM23,29h1v1h-1zM24,29h1v1h-1zM28,29h1v1h-1zM32,29h1v1h-1zM33,29h1v1h-1zM35,29h1v1h-1zM36,29h1v1h-1zM4,30h1v1h-1zM5,30h1v1h-1zM6,30h1v1h-1zM7,30h1v1h-1zM8,30h1v1h-1zM9,30h1v1h-1zM10,30h1v1h-1zM12,30h1v1h-1zM13,30h1v1h-1zM14,30h1v1h-1zM15,30h1v1h-1zM17,30h1v1h-1zM18,30h1v1h-1zM19,30h1v1h-1zM22,30h1v1h-1zM23,30h1v1h-1zM24,30h1v1h-1zM26,30h1v1h-1zM28,30h1v1h-1zM30,30h1v1h-1zM32,30h1v1h-1zM33,30h1v1h-1zM35,30h1v1h-1zM36,30h1v1h-1zM4,31h1v1h-1zM10,31h1v1h-1zM15,31h1v1h-1zM16,31h1v1h-1zM17,31h1v1h-1zM19,31h1v1h-1zM20,31h1v1h-1zM21,31h1v1h-1zM24,31h1v1h-1zM28,31h1v1h-1zM32,31h1v1h-1zM35,31h1v1h-1zM36,31h1v1h-1zM4,32h1v1h-1zM6,32h1v1h-1zM7,32h1v1h-1zM8,32h1v1h-1zM10,32h1v1h-1zM13,32h1v1h-1zM14,32h1v1h-1zM15,32h1v1h-1zM17,32h1v1h-1zM18,32h1v1h-1zM19,32h1v1h-1zM22,32h1v1h-1zM23,32h1v1h-1zM28,32h1v1h-1zM29,32h1v1h-1zM30,32h1v1h-1zM31,32h1v1h-1zM32,32h1v1h-1zM36,32h1v1h-1zM4,33h1v1h-1zM6,33h1v1h-1zM7,33h1v1h-1zM8,33h1v1h-1zM10,33h1v1h-1zM13,33h1v1h-1zM14,33h1v1h-1zM18,33h1v1h-1zM22,33h1v1h-1zM23,33h1v1h-1zM24,33h1v1h-1zM27,33h1v1h-1zM30,33h1v1h-1zM31,33h1v1h-1zM32,33h1v1h-1zM36,33h1v1h-1zM4,34h1v1h-1zM6,34h1v1h-1zM7,34h1v1h-1zM8,34h1v1h-1zM10,34h1v1h-1zM12,34h1v1h-1zM16,34h1v1h-1zM20,34h1v1h-1zM23,34h1v1h-1zM24,34h1v1h-1zM25,34h1v1h-1zM26,34h1v1h-1zM30,34h1v1h-1zM31,34h1v1h-1zM32,34h1v1h-1zM33,34h1v1h-1zM34,34h1v1h-1zM36,34h1v1h-1zM4,35h1v1h-1zM10,35h1v1h-1zM13,35h1v1h-1zM14,35h1v1h-1zM18,35h1v1h-1zM22,35h1v1h-1zM23,35h1v1h-1zM24,35h1v1h-1zM29,35h1v1h-1zM35,35h1v1h-1zM4,36h1v1h-1zM5,36h1v1h-1zM6,36h1v1h-1zM7,36h1v1h-1zM8,36h1v1h-1zM9,36h1v1h-1zM10,36h1v1h-1zM13,36h1v1h-1zM14,36h1v1h-1zM16,36h1v1h-1zM18,36h1v1h-1zM20,36h1v1h-1zM22,36h1v1h-1zM24,36h1v1h-1zM27,36h1v1h-1zM32,36h1v1h-1zM35,36h1v1h-1zM36,36h1v1h-1z" fill="#17211d"/></svg>
